<?xml version="1.0" encoding="UTF-8" standalone="no"?>
<svg
   width="130.26036"
   height="69.670982"
   viewBox="0 0 130.26036 69.670982"
   version="1.1"
   id="svg32"
   xmlns:xlink="http://www.w3.org/1999/xlink"
   xmlns="http://www.w3.org/2000/svg"
   xmlns:svg="http://www.w3.org/2000/svg">
  <defs
     id="defs32" />
  <g
     stroke="none"
     stroke-width="1"
     fill="none"
     fill-rule="evenodd"
     id="g32"
     transform="translate(0,-0.51134316)">
    <g
       transform="translate(-120,-72)"
       id="g31">
      <g
         transform="translate(120,72)"
         id="g30">
        <g
           id="g3">
          <mask
             fill="#ffffff"
             id="mask1">
            <use
               xlink:href="#path-1"
               id="use1" />
          </mask>
          <g
             id="g1" />
          <path
             d="m 13.9374,16.005336 c 3.986182,0.02135 7.678145,-3.177081 8.245227,-7.139536 L 22.351091,7.7197727 C 22.920545,3.7549455 20.1492,0.52803636 16.165391,0.51142727 12.179209,0.49244545 8.4896182,3.6885091 7.9201636,7.6509636 L 7.7540727,8.7969909 C 7.1846182,12.764191 9.9512182,15.988727 13.9374,16.005336"
             fill="#006d8c"
             id="path1" />
          <path
             d="m 28.365954,48.739482 c 9.832582,-6.619909 16.443,-23.713037 16.443,-23.713037 0,0 -2.284936,-0.987054 -5.049163,-0.984681 -5.692173,0.0047 -12.931364,2.854391 -19.076727,14.376354 -1.326355,2.493736 -2.299173,5.082382 -2.885237,6.999546 L 20.649846,24.409536 H 6.1524818 L 0,69.709645 h 14.499736 l 2.901846,-21.371154 0.488782,2.536445 c 0.614536,2.795073 5.049163,19.249937 17.553436,19.306882 2.365609,0.01424 4.394291,-0.270491 6.124009,-0.711818 0,0 1.561255,-16.727727 -13.201855,-20.730518"
             fill="#006d8c"
             id="path2" />
          <path
             d="M 80.781873,24.331236 78.131536,51.297282 67.8339,29.862064 c -1.326354,-2.942182 -3.570955,-5.886737 -8.389964,-5.886737 -2.066645,0 -4.311245,0.676227 -6.043336,1.046373 L 46.998982,69.662191 H 60.046609 L 63.162,43.711673 c 3.2103,7.488327 8.000836,17.994763 9.6831,20.9061 2.593391,4.572245 5.433545,5.568791 7.663909,5.523709 3.333682,0.01186 5.070518,-1.442618 6.178582,-3.089291 1.117554,-1.639555 1.392791,-3.438082 1.504309,-4.209218 L 93.677645,24.331236 H 80.781873"
             fill="#11b5e9"
             id="path3" />
        </g>
        <path
           d="M 112.50998,58.092773 116.27313,31.3118 c 0.56233,-4.017027 -2.23511,-7.277155 -6.25214,-7.277155 -4.0194,0 -7.73272,3.260128 -8.2998,7.277155 l -4.372936,31.127809 c -0.567081,4.0194 2.232737,7.279527 6.249766,7.279527 h 25.0299 l 1.63243,-11.626363 h -17.75037"
           fill="#11b5e9"
           id="path4" />
      </g>
    </g>
  </g>
</svg>
