<svg width="261px" height="71px" viewBox="0 0 261 71" version="1.1" xmlns="http://www.w3.org/2000/svg" xmlns:xlink="http://www.w3.org/1999/xlink">
    <g stroke="none" stroke-width="1" fill="none" fill-rule="evenodd">
        <g transform="translate(-120.000000, -72.000000)">
            <g transform="translate(120.000000, 72.000000)">
                <g>
                    <mask fill="white">
                        <use xlink:href="#path-1"></use>
                    </mask>
                    <g></g>
                    <path d="M13.9374,16.0053364 C17.9235818,16.0266909 21.6155455,12.8282545 22.1826273,8.8658 L22.3510909,7.71977273 C22.9205455,3.75494545 20.1492,0.528036364 16.1653909,0.511427273 C12.1792091,0.492445455 8.48961818,3.68850909 7.92016364,7.65096364 L7.75407273,8.79699091 C7.18461818,12.7641909 9.95121818,15.9887273 13.9374,16.0053364" fill="#006D8C"></path>
                    <path d="M28.3659545,48.7394818 C38.1985364,42.1195727 44.8089545,25.0264455 44.8089545,25.0264455 C44.8089545,25.0264455 42.5240182,24.0393909 39.7597909,24.0417636 C34.0676182,24.0465091 26.8284273,26.8961545 20.6830636,38.4181182 C19.3567091,40.9118545 18.3838909,43.5005 17.7978273,45.4176636 L20.6498455,24.4095364 L6.15248182,24.4095364 L0,69.7096455 L14.4997364,69.7096455 L17.4015818,48.3384909 L17.8903636,50.8749364 C18.5049,53.6700091 22.9395273,70.1248727 35.4438,70.1818182 C37.8094091,70.1960545 39.8380909,69.9113273 41.5678091,69.47 C41.5678091,69.47 43.1290636,52.7422727 28.3659545,48.7394818" fill="#006D8C"></path>
                    <path d="M80.7818727,24.3312364 L78.1315364,51.2972818 L67.8339,29.8620636 C66.5075455,26.9198818 64.2629455,23.9753273 59.4439364,23.9753273 C57.3772909,23.9753273 55.1326909,24.6515545 53.4006,25.0217 L46.9989818,69.6621909 L60.0466091,69.6621909 L63.162,43.7116727 C66.3723,51.2 71.1628364,61.7064364 72.8451,64.6177727 C75.4384909,69.1900182 78.2786455,70.1865636 80.5090091,70.1414818 C83.8426909,70.1533455 85.5795273,68.6988636 86.6875909,67.0521909 C87.8051455,65.4126364 88.0803818,63.6141091 88.1919,62.8429727 L93.6776455,24.3312364 L80.7818727,24.3312364" fill="#11B5E9"></path>
                </g>
                <path d="M112.509982,58.0927727 L116.273127,31.3118 C116.835464,27.2947727 114.038018,24.0346455 110.020991,24.0346455 C106.001591,24.0346455 102.288273,27.2947727 101.721191,31.3118 L97.3482545,62.4396091 C96.7811727,66.4590091 99.5809909,69.7191364 103.598018,69.7191364 L128.627918,69.7191364 L130.260355,58.0927727 L112.509982,58.0927727" fill="#11B5E9"></path>
                <path d="M143.943873,33.2906545 L145.146845,33.2906545 L145.146845,24.7654455 L143.943873,24.7654455 L143.943873,33.2906545 Z M144.546545,22.3595 C144.107591,22.3595 143.671009,21.9964727 143.671009,21.4863364 C143.671009,20.9762 144.107591,20.6108 144.546545,20.6108 C144.983127,20.6108 145.422082,20.9762 145.422082,21.4863364 C145.422082,21.9964727 144.983127,22.3595 144.546545,22.3595 L144.546545,22.3595 Z" fill="#11B5E9"></path>
                <path d="M149.192345,24.7630727 C149.246918,25.2210091 149.246918,25.6765727 149.246918,26.1297636 L149.282509,26.1297636 C149.811627,25.2020273 151.0146,24.5447818 152.144018,24.5447818 C154.310318,24.5447818 155.349573,25.7667364 155.349573,27.8808364 L155.349573,33.2906545 L154.1466,33.2906545 L154.1466,28.5736727 C154.1466,26.6778636 153.617482,25.6386091 151.833191,25.6386091 C151.579309,25.6386091 149.246918,25.8047 149.246918,28.9177182 L149.246918,33.2906545 L148.043945,33.2906545 L148.043945,26.6399 C148.043945,26.1867091 147.989373,25.3847273 147.953782,24.7630727 L149.192345,24.7630727" fill="#11B5E9"></path>
                <path d="M162.581645,25.8569 L160.1235,25.8569 L160.1235,30.8847091 C160.1235,32.1612364 160.614655,32.4174909 161.359691,32.4174909 C161.779664,32.4174909 162.235227,32.2869909 162.600627,32.0876818 L162.6552,33.2004909 C162.216245,33.4021727 161.634927,33.5113182 161.034627,33.5113182 C160.1235,33.5113182 158.920527,33.1103273 158.920527,31.2335 L158.920527,25.8569 L157.117255,25.8569 L157.117255,24.7630727 L158.920527,24.7630727 L158.920527,22.3595 L160.1235,22.3595 L160.1235,24.7630727 L162.581645,24.7630727 L162.581645,25.8569" fill="#11B5E9"></path>
                <path d="M170.852973,28.3719909 C170.852973,26.7514182 169.813718,25.6362364 168.084,25.6362364 C166.515627,25.6362364 165.094364,26.9697091 165.094364,28.3719909 L170.852973,28.3719909 Z M165.0564,29.3566727 C165.203509,31.0650364 166.499018,32.4151182 168.193145,32.4151182 C169.4673,32.4151182 170.449609,31.7056727 170.924155,30.9416545 L171.854264,31.7056727 C170.852973,32.9798273 169.593055,33.5089455 168.193145,33.5089455 C165.661445,33.5089455 163.784618,31.5965273 163.784618,29.0268636 C163.784618,26.4595727 165.661445,24.5447818 168.084,24.5447818 C170.670273,24.5637636 172.162718,26.4785545 172.162718,28.8085727 L172.162718,29.3566727 L165.0564,29.3566727 L165.0564,29.3566727 Z" fill="#11B5E9"></path>
                <path d="M178.3935,32.1968273 C180.144573,32.1968273 181.691591,30.8847091 181.618036,28.9177182 C181.618036,27.1334273 180.398455,25.6386091 178.3935,25.6386091 C176.609209,25.6386091 175.223536,27.1334273 175.223536,28.9177182 C175.223536,30.7020091 176.609209,32.1968273 178.3935,32.1968273 M175.005245,35.0061364 C175.714691,35.9504818 176.901055,36.5697636 178.265373,36.5697636 C180.706909,36.5697636 181.582445,35.0583364 181.582445,33.2171 L181.582445,31.6866909 L181.544482,31.6866909 C180.780464,32.8374636 179.596473,33.2906545 178.357909,33.2906545 C175.897391,33.2906545 173.913791,31.4517909 173.913791,28.9533091 C173.913791,26.4761818 175.733673,24.5447818 178.248764,24.5447818 C179.269036,24.5447818 180.562173,24.8556091 181.544482,26.1843364 L181.582445,26.1843364 L181.582445,24.7630727 L182.785418,24.7630727 L182.785418,33.2171 C182.785418,35.0749455 182.038009,37.6612182 178.2108,37.6612182 C176.519045,37.6612182 175.206927,37.1154909 174.1131,35.9504818 L175.005245,35.0061364" fill="#11B5E9"></path>
                <path d="M185.606591,27.4229 C185.606591,26.6612545 185.571,26.0040091 185.535409,24.7630727 L186.7194,24.7630727 L186.7194,26.3480545 L186.754991,26.3480545 C187.101409,25.4369273 187.993555,24.5447818 189.488373,24.5447818 C189.832418,24.5447818 190.126636,24.5827455 190.380518,24.6539273 L190.143245,25.8379182 C189.998509,25.7857182 189.780218,25.7477545 189.450409,25.7477545 C187.628155,25.7477545 186.809564,27.3327364 186.809564,28.4811364 L186.809564,33.2906545 L185.606591,33.2906545 L185.606591,27.4229" fill="#11B5E9"></path>
                <path d="M196.374027,29.0458455 C195.154445,29.0458455 192.402082,29.1360091 192.402082,30.8514909 C192.402082,31.9785364 193.441336,32.4151182 194.404664,32.4151182 C196.155736,32.4151182 196.993309,31.1765545 196.993309,29.6675 L196.993309,29.0458455 L196.374027,29.0458455 Z M196.993309,28.0611636 L196.993309,27.8428727 C196.993309,26.3670364 196.283864,25.6386091 194.808027,25.6386091 C193.806736,25.6386091 192.9312,25.9850273 192.202773,26.6399 L191.474345,25.7857182 C192.257345,24.9837364 193.4793,24.5447818 195.080891,24.5447818 C196.756036,24.5447818 198.193909,25.4938727 198.193909,27.5700091 L198.193909,31.3782364 C198.193909,32.0331091 198.267464,32.8374636 198.341018,33.2906545 L197.176009,33.2906545 C197.102455,32.8706818 197.066864,32.3605455 197.066864,31.9049818 L197.0289,31.9049818 C196.338436,33.0367727 195.389345,33.5089455 194.025027,33.5089455 C192.511227,33.5089455 191.092336,32.6713727 191.092336,31.0128364 C191.092336,28.2438636 194.352464,28.0611636 196.393009,28.0611636 L196.993309,28.0611636 L196.993309,28.0611636 Z" fill="#11B5E9"></path>
                <path d="M205.826973,29.0458455 C204.607391,29.0458455 201.855027,29.1360091 201.855027,30.8514909 C201.855027,31.9785364 202.894282,32.4151182 203.859982,32.4151182 C205.608682,32.4151182 206.446255,31.1765545 206.446255,29.6675 L206.446255,29.0458455 L205.826973,29.0458455 Z M206.446255,28.0611636 L206.446255,27.8428727 C206.446255,26.3670364 205.736809,25.6386091 204.260973,25.6386091 C203.259682,25.6386091 202.384145,25.9850273 201.655718,26.6399 L200.927291,25.7857182 C201.710291,24.9837364 202.932245,24.5447818 204.533836,24.5447818 C206.208982,24.5447818 207.649227,25.4938727 207.649227,27.5700091 L207.649227,31.3782364 C207.649227,32.0331091 207.722782,32.8374636 207.793964,33.2906545 L206.628955,33.2906545 C206.5554,32.8706818 206.519809,32.3605455 206.519809,31.9049818 L206.481845,31.9049818 C205.791382,33.0367727 204.844664,33.5089455 203.477973,33.5089455 C201.966545,33.5089455 200.545282,32.6713727 200.545282,31.0128364 C200.545282,28.2438636 203.805409,28.0611636 205.845955,28.0611636 L206.446255,28.0611636 L206.446255,28.0611636 Z" fill="#11B5E9"></path>
                <polygon fill="#11B5E9" points="210.710045 33.2906545 211.913018 33.2906545 211.913018 19.5193455 210.710045 19.5193455"></polygon>
                <polyline fill="#11B5E9" points="145.108882 46.8270636 149.1354 42.9832455 150.9363 42.9832455 146.693864 46.8816364 151.391864 51.5084545 149.534018 51.5084545 145.108882 47.0263727 145.108882 51.5084545 143.905909 51.5084545 143.905909 37.7371455 145.108882 37.7371455 145.108882 46.8270636"></polyline>
                <path d="M157.530109,47.2636455 C156.310527,47.2636455 153.560536,47.3538091 153.560536,49.0645455 C153.560536,50.1963364 154.599791,50.6329182 155.563118,50.6329182 C157.314191,50.6329182 158.151764,49.3943545 158.151764,47.8805545 L158.151764,47.2636455 L157.530109,47.2636455 Z M158.151764,46.2789636 L158.151764,46.0606727 C158.151764,44.5848364 157.439945,43.8564091 155.966482,43.8564091 C154.962818,43.8564091 154.089655,44.2028273 153.361227,44.8577 L152.630427,44.0035182 C153.4158,43.1991636 154.635382,42.7625818 156.239345,42.7625818 C157.916864,42.7625818 159.352364,43.7116727 159.352364,45.7878091 L159.352364,49.5960364 C159.352364,50.2485364 159.425918,51.0528909 159.4971,51.5084545 L158.334464,51.5084545 C158.260909,51.0884818 158.222945,50.5783455 158.222945,50.1227818 L158.189727,50.1227818 C157.494518,51.2522 156.5478,51.7243727 155.183482,51.7243727 C153.669682,51.7243727 152.248418,50.8891727 152.248418,49.2306364 C152.248418,46.4616636 155.508545,46.2789636 157.551464,46.2789636 L158.151764,46.2789636 L158.151764,46.2789636 Z" fill="#11B5E9"></path>
                <path d="M163.288718,42.9808727 C163.343291,43.4364364 163.343291,43.892 163.343291,44.3475636 L163.381255,44.3475636 C163.908,43.4174545 165.110973,42.7625818 166.240391,42.7625818 C168.406691,42.7625818 169.445945,43.9821636 169.445945,46.0962636 L169.445945,51.5060818 L168.242973,51.5060818 L168.242973,46.7891 C168.242973,44.8956636 167.716227,43.8564091 165.931936,43.8564091 C165.673309,43.8564091 163.343291,44.0201273 163.343291,47.1355182 L163.343291,51.5060818 L162.142691,51.5060818 L162.142691,44.8577 C162.142691,44.4045091 162.085745,43.6001545 162.050155,42.9808727 L163.288718,42.9808727" fill="#11B5E9"></path>
                <polyline fill="#11B5E9" points="173.470091 46.8270636 177.496609 42.9832455 179.299882 42.9832455 175.055073 46.8816364 179.755445 51.5084545 177.8976 51.5084545 173.470091 47.0263727 173.470091 51.5084545 172.269491 51.5084545 172.269491 37.7371455 173.470091 37.7371455 173.470091 46.8270636"></polyline>
                <path d="M187.680355,46.5874182 C187.680355,44.9692182 186.6411,43.8540364 184.911382,43.8540364 C183.345382,43.8540364 181.924118,45.1875091 181.924118,46.5874182 L187.680355,46.5874182 Z M181.888527,47.5744727 C182.033264,49.2828364 183.3264,50.6329182 185.020527,50.6329182 C186.297055,50.6329182 187.279364,49.9234727 187.753909,49.1570818 L188.684018,49.9234727 C187.680355,51.1976273 186.422809,51.7243727 185.020527,51.7243727 C182.488827,51.7243727 180.612,49.8143273 180.612,47.2446636 C180.612,44.6773727 182.488827,42.7602091 184.911382,42.7602091 C187.497655,42.7815636 188.992473,44.6963545 188.992473,47.0263727 L188.992473,47.5744727 L181.888527,47.5744727 L181.888527,47.5744727 Z" fill="#11B5E9"></path>
                <path d="M191.305882,45.6407 C191.305882,44.8766818 191.267918,44.2194364 191.232327,42.9808727 L192.416318,42.9808727 L192.416318,44.5658545 L192.454282,44.5658545 C192.798327,43.6547273 193.692845,42.7625818 195.185291,42.7625818 C195.531709,42.7625818 195.823555,42.8005455 196.077436,42.8717273 L195.842536,44.0557182 C195.695427,44.0035182 195.477136,43.9655545 195.1497,43.9655545 C193.327445,43.9655545 192.508855,45.5505364 192.508855,46.6989364 L192.508855,51.5060818 L191.305882,51.5060818 L191.305882,45.6407" fill="#11B5E9"></path>
                <path d="M203.112573,44.9858273 C202.711582,44.3665455 201.928582,43.8564091 200.981864,43.8564091 C198.995891,43.8184455 197.776309,45.2966545 197.776309,47.2446636 C197.776309,49.1926727 198.995891,50.6685091 200.981864,50.6329182 C201.928582,50.6329182 202.711582,50.1227818 203.112573,49.5035 L204.094882,50.2485364 C203.257309,51.2332182 202.127891,51.7077636 200.981864,51.7243727 C198.193909,51.7623364 196.466564,49.8119545 196.466564,47.2446636 C196.466564,44.675 198.193909,42.7293636 200.981864,42.7625818 C202.127891,42.7815636 203.257309,43.2537364 204.094882,44.2384182 L203.112573,44.9858273" fill="#11B5E9"></path>
                <path d="M212.314009,46.5874182 C212.314009,44.9692182 211.274755,43.8540364 209.545036,43.8540364 C207.976664,43.8540364 206.5554,45.1875091 206.5554,46.5874182 L212.314009,46.5874182 Z M206.519809,47.5744727 C206.666918,49.2828364 207.957682,50.6329182 209.654182,50.6329182 C210.928336,50.6329182 211.913018,49.9234727 212.385191,49.1570818 L213.3153,49.9234727 C212.314009,51.1976273 211.056464,51.7243727 209.654182,51.7243727 C207.122482,51.7243727 205.245655,49.8143273 205.245655,47.2446636 C205.245655,44.6773727 207.122482,42.7602091 209.545036,42.7602091 C212.131309,42.7815636 213.623755,44.6963545 213.623755,47.0263727 L213.623755,47.5744727 L206.519809,47.5744727 L206.519809,47.5744727 Z" fill="#11B5E9"></path>
                <path d="M216.957436,42.9808727 C217.012009,43.4364364 217.012009,43.892 217.012009,44.3475636 L217.0476,44.3475636 C217.579091,43.4174545 218.779691,42.7625818 219.911482,42.7625818 C222.077782,42.7625818 223.117036,43.9821636 223.117036,46.0962636 L223.117036,51.5060818 L221.911691,51.5060818 L221.911691,46.7891 C221.911691,44.8956636 221.384945,43.8564091 219.600655,43.8564091 C219.3444,43.8564091 217.012009,44.0201273 217.012009,47.1355182 L217.012009,51.5060818 L215.809036,51.5060818 L215.809036,44.8577 C215.809036,44.4045091 215.756836,43.6001545 215.7165,42.9808727 L216.957436,42.9808727" fill="#11B5E9"></path>
                <path d="M230.346736,44.0747 L227.888591,44.0747 L227.888591,49.1025091 C227.888591,50.3790364 228.379745,50.6329182 229.127155,50.6329182 C229.544755,50.6329182 230.000318,50.5071636 230.365718,50.3054818 L230.420291,51.4159182 C229.983709,51.6176 229.400018,51.7243727 228.799718,51.7243727 C227.888591,51.7243727 226.683245,51.3233818 226.683245,49.4465545 L226.683245,44.0747 L224.882345,44.0747 L224.882345,42.9808727 L226.683245,42.9808727 L226.683245,40.5773 L227.888591,40.5773 L227.888591,42.9808727 L230.346736,42.9808727 L230.346736,44.0747" fill="#11B5E9"></path>
                <path d="M232.114418,45.6407 C232.114418,44.8766818 232.076455,44.2194364 232.040864,42.9808727 L233.224855,42.9808727 L233.224855,44.5658545 L233.260445,44.5658545 C233.609236,43.6547273 234.499009,42.7625818 235.993827,42.7625818 C236.340245,42.7625818 236.632091,42.8005455 236.885973,42.8717273 L236.651073,44.0557182 C236.506336,44.0035182 236.288045,43.9655545 235.958236,43.9655545 C234.135982,43.9655545 233.317391,45.5505364 233.317391,46.6989364 L233.317391,51.5060818 L232.114418,51.5060818 L232.114418,45.6407" fill="#11B5E9"></path>
                <path d="M244.1916,51.5084545 C244.137027,51.0505182 244.137027,50.5973273 244.137027,50.1417636 L244.101436,50.1417636 C243.572318,51.0695 242.369345,51.7243727 241.239927,51.7243727 C239.073627,51.7243727 238.034373,50.5071636 238.034373,48.3906909 L238.034373,42.9832455 L239.237345,42.9832455 L239.237345,47.6978545 C239.237345,49.5936636 239.766464,50.6329182 241.550755,50.6329182 C241.804636,50.6329182 244.137027,50.4668273 244.137027,47.3561818 L244.137027,42.9832455 L245.34,42.9832455 L245.34,49.6316273 C245.34,50.0848182 245.394573,50.8868 245.430164,51.5084545 L244.1916,51.5084545" fill="#11B5E9"></path>
                <path d="M248.163545,44.8766818 C248.163545,44.2384182 248.108973,43.6215091 248.071009,42.9808727 L249.366518,42.9808727 L249.366518,44.2763818 L249.402109,44.2763818 C249.983427,43.2917 251.131827,42.7625818 252.1521,42.7625818 C253.082209,42.7625818 254.301791,43.0734091 254.8665,44.5302636 C255.357655,43.4364364 256.525036,42.7625818 257.673436,42.7625818 C259.839736,42.7625818 260.878991,43.9845364 260.878991,46.0962636 L260.878991,51.5060818 L259.676018,51.5060818 L259.676018,46.5328455 C259.676018,44.8055 259.184864,43.8564091 257.526327,43.8564091 C255.742036,43.8564091 255.122755,45.3868182 255.122755,46.9718 L255.122755,51.5060818 L253.919782,51.5060818 L253.919782,46.5328455 C253.919782,44.8055 253.428627,43.8564091 251.770091,43.8564091 C251.478245,43.8564091 249.366518,44.0201273 249.366518,47.1355182 L249.366518,51.5060818 L248.163545,51.5060818 L248.163545,44.8766818" fill="#11B5E9"></path>
                <polyline fill="#11B5E9" points="153.247336 67.7568909 153.282927 67.7568909 153.282927 56.8257364 154.595045 56.8257364 154.595045 69.7238818 152.955491 69.7238818 145.267855 58.6835818 145.232264 58.6835818 145.232264 69.7238818 143.920145 69.7238818 143.920145 56.8257364 145.5597 56.8257364 153.247336 67.7568909"></polyline>
                <path d="M164.287636,64.8052182 C164.287636,63.1870182 163.250755,62.0718364 161.518664,62.0718364 C159.947918,62.0718364 158.529027,63.4029364 158.529027,64.8052182 L164.287636,64.8052182 Z M158.493436,65.7899 C158.638173,67.5006364 159.931309,68.8483455 161.625436,68.8483455 C162.904336,68.8483455 163.884273,68.1389 164.358818,67.3748818 L165.286555,68.1389 C164.287636,69.4154273 163.027718,69.9421727 161.625436,69.9421727 C159.096109,69.9421727 157.221655,68.0321273 157.221655,65.4624636 C157.221655,62.8928 159.096109,60.9780091 161.518664,60.9780091 C164.102564,60.9993636 165.597382,62.9117818 165.597382,65.2418 L165.597382,65.7899 L158.493436,65.7899 L158.493436,65.7899 Z" fill="#11B5E9"></path>
                <path d="M171.738,68.8483455 C173.704991,68.8483455 175.142864,67.3725091 175.142864,65.4624636 C175.142864,63.5500455 173.704991,62.0742091 171.738,62.0742091 C169.752027,62.0742091 168.513464,63.5500455 168.513464,65.4624636 C168.513464,67.3725091 169.752027,68.8483455 171.738,68.8483455 M176.291264,69.7238818 L175.088291,69.7238818 L175.088291,68.3049909 L175.0527,68.3049909 C174.2697,69.4486455 172.867418,69.9421727 171.738,69.9421727 C169.078173,69.9421727 167.201345,68.0297545 167.201345,65.4624636 C167.201345,62.8904273 169.078173,60.9803818 171.738,60.9803818 C172.867418,60.9803818 174.2697,61.4739091 175.0527,62.6175636 L175.088291,62.6175636 L175.088291,55.9525727 L176.291264,55.9525727 L176.291264,69.7238818" fill="#11B5E9"></path>
                <path d="M185.547273,64.8052182 C185.547273,63.1870182 184.508018,62.0718364 182.7783,62.0718364 C181.207555,62.0718364 179.788664,63.4029364 179.788664,64.8052182 L185.547273,64.8052182 Z M179.7507,65.7899 C179.897809,67.5006364 181.190945,68.8483455 182.885073,68.8483455 C184.163973,68.8483455 185.143909,68.1389 185.618455,67.3748818 L186.546191,68.1389 C185.547273,69.4154273 184.287355,69.9421727 182.885073,69.9421727 C180.355745,69.9421727 178.478918,68.0321273 178.478918,65.4624636 C178.478918,62.8928 180.355745,60.9780091 182.7783,60.9780091 C185.3622,60.9993636 186.857018,62.9117818 186.857018,65.2418 L186.857018,65.7899 L179.7507,65.7899 L179.7507,65.7899 Z" fill="#11B5E9"></path>
                <path d="M189.170427,63.8585 C189.170427,63.0944818 189.134836,62.4372364 189.099245,61.1986727 L190.283236,61.1986727 L190.283236,62.7836545 L190.318827,62.7836545 C190.665245,61.8725273 191.557391,60.9803818 193.052209,60.9803818 C193.396255,60.9803818 193.690473,61.0183455 193.944355,61.0895273 L193.707082,62.2735182 C193.562345,62.2165727 193.344055,62.1833545 193.014245,62.1833545 C191.191991,62.1833545 190.3734,63.7683364 190.3734,64.9167364 L190.3734,69.7215091 L189.170427,69.7215091 L189.170427,63.8585" fill="#11B5E9"></path>
                <polygon fill="#11B5E9" points="195.363245 69.7262545 196.566218 69.7262545 196.566218 55.9525727 195.363245 55.9525727"></polygon>
                <path d="M204.308427,65.4790727 C203.088845,65.4790727 200.338855,65.5692364 200.338855,67.2823455 C200.338855,68.4141364 201.373364,68.8483455 202.341436,68.8483455 C204.087764,68.8483455 204.925336,67.6121545 204.925336,66.0983545 L204.925336,65.4790727 L204.308427,65.4790727 Z M204.925336,64.4943909 L204.925336,64.2761 C204.925336,62.8002636 204.218264,62.0742091 202.742427,62.0742091 C201.741136,62.0742091 200.8656,62.4182545 200.137173,63.0755 L199.408745,62.2189455 C200.191745,61.4169636 201.4137,60.9803818 203.015291,60.9803818 C204.692809,60.9803818 206.130682,61.9271 206.130682,64.0032364 L206.130682,67.8138364 C206.130682,68.4663364 206.204236,69.2706909 206.277791,69.7238818 L205.110409,69.7238818 C205.039227,69.3062818 205.001264,68.7961455 205.001264,68.3382091 L204.965673,68.3382091 C204.272836,69.47 203.326118,69.9421727 201.959427,69.9421727 C200.448,69.9421727 199.026736,69.1069727 199.026736,67.4460636 C199.026736,64.6794636 202.286864,64.4943909 204.327409,64.4943909 L204.925336,64.4943909 L204.925336,64.4943909 Z" fill="#11B5E9"></path>
                <path d="M210.064664,61.1986727 C210.121609,61.6542364 210.121609,62.1074273 210.121609,62.5653636 L210.154827,62.5653636 C210.683945,61.6352545 211.884545,60.9803818 213.016336,60.9803818 C215.182636,60.9803818 216.221891,62.1999636 216.221891,64.3140636 L216.221891,69.7215091 L215.018918,69.7215091 L215.018918,65.0069 C215.018918,63.1110909 214.4898,62.0742091 212.705509,62.0742091 C212.449255,62.0742091 210.121609,62.2379273 210.121609,65.3533182 L210.121609,69.7215091 L208.916264,69.7215091 L208.916264,63.0755 C208.916264,62.6199364 208.861691,61.8155818 208.823727,61.1986727 L210.064664,61.1986727" fill="#11B5E9"></path>
                <path d="M223.000773,68.8483455 C224.967764,68.8483455 226.405636,67.3725091 226.405636,65.4624636 C226.405636,63.5500455 224.967764,62.0742091 223.000773,62.0742091 C221.0148,62.0742091 219.776236,63.5500455 219.776236,65.4624636 C219.776236,67.3725091 221.0148,68.8483455 223.000773,68.8483455 M227.554036,69.7238818 L226.351064,69.7238818 L226.351064,68.3049909 L226.315473,68.3049909 C225.532473,69.4486455 224.130191,69.9421727 223.000773,69.9421727 C220.340945,69.9421727 218.464118,68.0297545 218.464118,65.4624636 C218.464118,62.8904273 220.340945,60.9803818 223.000773,60.9803818 C224.130191,60.9803818 225.532473,61.4739091 226.315473,62.6175636 L226.351064,62.6175636 L226.351064,55.9525727 L227.554036,55.9525727 L227.554036,69.7238818" fill="#11B5E9"></path>
            </g>
        </g>
    </g>
</svg>