<?xml version="1.0" encoding="UTF-8" standalone="no"?>
<svg
   width="869.13574pt"
   height="217.79295pt"
   viewBox="0 0 869.13574 217.79295"
   version="1.1"
   id="svg18"
   sodipodi:docname="pallsedatie-logo-texttopath.svg"
   inkscape:version="1.4.3 (0d15f75, 2025-12-25)"
   xmlns:inkscape="http://www.inkscape.org/namespaces/inkscape"
   xmlns:sodipodi="http://sodipodi.sourceforge.net/DTD/sodipodi-0.dtd"
   xmlns="http://www.w3.org/2000/svg"
   xmlns:svg="http://www.w3.org/2000/svg">
  <defs
     id="defs18" />
  <sodipodi:namedview
     id="namedview18"
     pagecolor="#ffffff"
     bordercolor="#000000"
     borderopacity="0.25"
     inkscape:showpageshadow="2"
     inkscape:pageopacity="0.0"
     inkscape:pagecheckerboard="0"
     inkscape:deskcolor="#d1d1d1"
     inkscape:document-units="pt"
     inkscape:zoom="0.60352669"
     inkscape:cx="79.532522"
     inkscape:cy="-63.791711"
     inkscape:current-layer="svg18" />
  <g
     id="#e8bf49fd"
     transform="matrix(0.51633801,0,0,0.51633801,-284.45878,-141.96817)"
     inkscape:label="goud" />
  <path
     fill="#e8bf49"
     opacity="1"
     d="m 146.81254,13.046827 c 1.19274,2.426789 1.64195,5.11691 2.43195,7.68311 1.16176,3.784758 2.57136,7.512718 4.41469,11.023816 1.45607,2.865676 3.88803,5.10142 6.48521,6.929257 5.72102,3.402667 12.45407,4.223644 18.77405,5.937887 -1.32699,1.043002 -3.10836,1.027512 -4.6677,1.492217 -6.21155,1.399276 -12.9859,2.524892 -17.8085,7.04285 -4.22364,4.264952 -5.87592,10.238983 -7.35781,15.882557 -0.67641,2.385482 -1.12046,4.853577 -2.21509,7.094484 -2.28738,-7.166771 -3.36137,-15.097723 -8.2356,-21.107897 -4.66253,-5.524817 -12.04616,-7.130628 -18.76888,-8.633172 -1.84849,-0.562808 -3.95515,-0.593789 -5.52482,-1.812346 5.54031,-1.41993 11.31297,-2.15313 16.57445,-4.523121 4.20299,-1.585158 7.79154,-4.739983 9.89304,-8.710623 3.14966,-5.669391 4.47148,-12.071982 6.00501,-18.299019 z"
     id="path2-0"
     inkscape:label="ster"
     style="fill:#d4a85a;fill-opacity:1;stroke-width:0.516338" />
  <path
     d="M 201.22559,168.89355 A 103.46912,103.46912 0 0 1 163.25684,176.11084 103.46912,103.46912 0 0 1 59.7876,72.6416 103.46912,103.46912 0 0 1 89.5752,0 109.83982,109.83982 0 0 0 0,107.95312 109.83982,109.83982 0 0 0 109.83985,217.79296 109.83982,109.83982 0 0 0 201.22559,168.89355 Z"
     style="opacity:1;vector-effect:non-scaling-stroke;fill:#1f2a44;fill-opacity:1;stroke-width:0.742574;-inkscape-stroke:hairline"
     id="path21"
     inkscape:label="maan" />
  <g
     id="text21"
     style="font-weight:300;font-size:114px;font-family:'Open Sans';-inkscape-font-specification:'Open Sans Light';fill:#1f2a44;stroke-width:0.75"
     aria-label="pallsedatie.nl">
    <path
       style="font-weight:600;font-family:'Source Sans 3';-inkscape-font-specification:'Source Sans 3 Semi-Bold'"
       d="m 213.63593,189.74698 v -78.09 h 10.83 l 0.912,5.928 h 0.456 q 3.534,-3.078 7.866,-5.13 4.332,-2.166 9.006,-2.166 6.954,0 11.856,3.534 4.902,3.534 7.524,9.918 2.622,6.384 2.622,15.048 0,9.576 -3.42,16.302 -3.42,6.726 -8.892,10.374 -5.358,3.534 -11.628,3.534 -3.648,0 -7.296,-1.596 -3.648,-1.596 -7.068,-4.56 l 0.342,9.348 v 17.556 z m 24.396,-31.578 q 3.762,0 6.726,-2.166 2.964,-2.166 4.674,-6.384 1.71,-4.332 1.71,-10.716 0,-5.586 -1.254,-9.576 -1.254,-3.99 -3.99,-6.042 -2.622,-2.166 -6.84,-2.166 -3.078,0 -6.042,1.596 -2.964,1.482 -6.27,4.674 v 26.106 q 3.078,2.508 5.928,3.648 2.964,1.026 5.358,1.026 z m 52.09801,10.83 q -4.902,0 -8.664,-2.052 -3.762,-2.052 -5.928,-5.7 -2.052,-3.762 -2.052,-8.664 0,-9.462 7.866,-14.25 7.98,-4.902 25.194,-6.726 -0.114,-2.85 -1.14,-5.244 -0.912,-2.394 -3.192,-3.762 -2.166,-1.482 -5.928,-1.482 -4.104,0 -8.094,1.482 -3.876,1.482 -7.638,3.762 l -4.788,-8.892 q 3.078,-1.938 6.726,-3.534 3.648,-1.71 7.752,-2.622 4.104,-1.026 8.55,-1.026 6.954,0 11.514,2.85 4.674,2.736 6.954,8.208 2.394,5.358 2.394,13.224 v 33.06 h -10.83 l -0.912,-6.156 h -0.456 q -3.876,3.192 -8.094,5.358 -4.218,2.166 -9.234,2.166 z m 4.104,-10.716 q 3.42,0 6.27,-1.368 2.964,-1.482 6.042,-4.332 v -11.856 q -7.638,0.912 -12.084,2.394 -4.446,1.482 -6.384,3.648 -1.824,2.052 -1.824,4.902 0,3.534 2.28,5.13 2.28,1.482 5.7,1.482 z m 53.92208,10.488 q -4.674,0 -7.524,-1.824 -2.736,-1.938 -3.99,-5.472 -1.254,-3.534 -1.254,-8.436 V 87.146981 h 13.11 v 66.575999 q 0,2.508 0.912,3.42 0.912,0.912 2.052,0.912 0.456,0 0.798,0 0.456,-0.114 1.14,-0.228 l 1.71,9.804 q -1.14,0.456 -2.964,0.798 -1.71,0.342 -3.99,0.342 z m 30.894,0 q -4.674,0 -7.524,-1.824 -2.736,-1.938 -3.99,-5.472 -1.254,-3.534 -1.254,-8.436 V 87.146981 h 13.11 v 66.575999 q 0,2.508 0.912,3.42 0.912,0.912 2.052,0.912 0.456,0 0.798,0 0.456,-0.114 1.14,-0.228 l 1.71,9.804 q -1.14,0.456 -2.964,0.798 -1.71,0.342 -3.99,0.342 z m 33.74398,0.228 q -5.814,0 -11.514,-2.166 -5.586,-2.166 -9.69,-6.042 l 5.814,-7.524 q 3.762,3.078 7.638,4.446 3.876,1.368 8.208,1.368 4.56,0 6.726,-1.938 2.166,-1.938 2.166,-4.788 0,-2.28 -1.71,-3.876 -1.596,-1.596 -4.218,-2.736 -2.622,-1.14 -5.814,-2.28 -4.104,-1.482 -7.638,-3.534 -3.534,-2.166 -5.814,-5.244 -2.166,-3.192 -2.166,-7.638 0,-7.41 5.472,-12.084 5.472,-4.674 14.82,-4.674 5.7,0 10.488,1.938 4.788,1.824 8.208,4.788 l -5.814,7.41 q -2.964,-2.166 -6.042,-3.192 -3.078,-1.026 -6.498,-1.026 -4.218,0 -6.27,1.824 -2.052,1.824 -2.052,4.332 0,2.052 1.254,3.534 1.368,1.368 3.876,2.508 2.508,1.026 6.042,2.166 4.332,1.482 8.094,3.648 3.762,2.052 5.928,5.358 2.28,3.192 2.28,8.094 0,4.788 -2.508,8.778 -2.508,3.876 -7.41,6.27 -4.788,2.28 -11.856,2.28 z m 57.56998,0 q -7.866,0 -14.25,-3.42 -6.27,-3.534 -9.918,-10.032 -3.648,-6.612 -3.648,-15.96 0,-9.12 3.762,-15.618 3.762,-6.612 9.69,-10.146 5.928,-3.534 12.54,-3.534 7.638,0 12.768,3.42 5.13,3.42 7.638,9.462 2.622,5.928 2.622,13.68 0,1.824 -0.228,3.534 -0.114,1.71 -0.456,3.306 h -38.532 v -10.032 h 27.588 q 0,-6.042 -2.736,-9.462 -2.736,-3.534 -8.436,-3.534 -3.192,0 -6.27,1.71 -2.964,1.71 -5.016,5.814 -1.938,4.104 -1.938,11.4 0,6.612 2.28,10.83 2.28,4.104 6.042,6.156 3.762,1.938 8.094,1.938 3.648,0 6.84,-1.026 3.306,-1.026 6.156,-2.85 l 4.56,8.436 q -3.876,2.736 -8.892,4.332 -4.902,1.596 -10.26,1.596 z m 53.352,0 q -10.488,0 -16.758,-7.752 -6.27,-7.752 -6.27,-21.546 0,-9.12 3.306,-15.732 3.42,-6.612 8.778,-10.146 5.472,-3.534 11.628,-3.534 4.788,0 8.094,1.596 3.42,1.596 6.612,4.56 l -0.456,-9.006 V 87.146981 h 13.11 v 80.483999 h -10.83 l -0.912,-6.042 h -0.456 q -3.078,3.078 -7.182,5.244 -4.104,2.166 -8.664,2.166 z m 3.192,-10.83 q 3.306,0 6.156,-1.482 2.85,-1.596 5.586,-4.788 v -26.106 q -2.85,-2.622 -5.7,-3.648 -2.85,-1.026 -5.7,-1.026 -3.648,0 -6.612,2.166 -2.85,2.166 -4.674,6.27 -1.71,4.104 -1.71,10.032 0,9.006 3.306,13.794 3.306,4.788 9.348,4.788 z m 55.0619,10.83 q -4.902,0 -8.664,-2.052 -3.762,-2.052 -5.928,-5.7 -2.052,-3.762 -2.052,-8.664 0,-9.462 7.866,-14.25 7.98,-4.902 25.194,-6.726 -0.114,-2.85 -1.14,-5.244 -0.912,-2.394 -3.192,-3.762 -2.166,-1.482 -5.928,-1.482 -4.104,0 -8.094,1.482 -3.876,1.482 -7.638,3.762 l -4.788,-8.892 q 3.078,-1.938 6.726,-3.534 3.648,-1.71 7.752,-2.622 4.104,-1.026 8.55,-1.026 6.954,0 11.514,2.85 4.674,2.736 6.954,8.208 2.394,5.358 2.394,13.224 v 33.06 h -10.83 l -0.912,-6.156 h -0.456 q -3.876,3.192 -8.094,5.358 -4.218,2.166 -9.234,2.166 z m 4.104,-10.716 q 3.42,0 6.27,-1.368 2.964,-1.482 6.042,-4.332 v -11.856 q -7.638,0.912 -12.084,2.394 -4.446,1.482 -6.384,3.648 -1.824,2.052 -1.824,4.902 0,3.534 2.28,5.13 2.28,1.482 5.7,1.482 z m 59.052,10.488 q -9.69,0 -13.794,-5.586 -3.99,-5.7 -3.99,-14.706 v -26.448 h -7.98 v -9.804 l 8.664,-0.57 1.596,-17.555999 h 10.944 v 17.555999 h 14.25 v 10.374 h -14.25 v 26.448 q 0,4.902 1.938,7.41 1.938,2.394 5.928,2.394 1.482,0 2.964,-0.228 1.482,-0.228 2.85,-0.912 l 2.394,9.234 q -2.166,1.026 -5.13,1.71 -2.964,0.684 -6.384,0.684 z m 21.43199,-1.14 v -55.974 h 13.11 v 55.974 z m 6.498,-65.778 q -3.42,0 -5.7,-2.051999 -2.166,-2.052 -2.166,-5.472 0,-3.42 2.166,-5.358 2.28,-2.052 5.7,-2.052 3.534,0 5.7,2.052 2.166,1.938 2.166,5.358 0,3.42 -2.166,5.472 -2.166,2.051999 -5.7,2.051999 z m 47.42392,67.146 q -7.866,0 -14.25,-3.42 -6.27,-3.534 -9.918,-10.032 -3.648,-6.612 -3.648,-15.96 0,-9.12 3.762,-15.618 3.762,-6.612 9.69,-10.146 5.928,-3.534 12.54,-3.534 7.638,0 12.768,3.42 5.13,3.42 7.638,9.462 2.622,5.928 2.622,13.68 0,1.824 -0.228,3.534 -0.114,1.71 -0.456,3.306 h -38.532 v -10.032 h 27.588 q 0,-6.042 -2.736,-9.462 -2.736,-3.534 -8.436,-3.534 -3.192,0 -6.27,1.71 -2.964,1.71 -5.016,5.814 -1.938,4.104 -1.938,11.4 0,6.612 2.28,10.83 2.28,4.104 6.042,6.156 3.762,1.938 8.094,1.938 3.648,0 6.84,-1.026 3.306,-1.026 6.156,-2.85 l 4.56,8.436 q -3.876,2.736 -8.892,4.332 -4.902,1.596 -10.26,1.596 z"
       id="path1" />
    <path
       style="font-weight:600;font-family:'Source Sans 3';-inkscape-font-specification:'Source Sans 3 Semi-Bold';fill:#d4a85a"
       d="m 761.63376,168.99898 q -3.534,0 -6.042,-2.508 -2.508,-2.622 -2.508,-6.384 0,-3.876 2.508,-6.384 2.508,-2.508 6.042,-2.508 3.648,0 6.042,2.508 2.394,2.508 2.394,6.384 0,3.762 -2.394,6.384 -2.394,2.508 -6.042,2.508 z m 23.93998,-1.368 v -55.974 h 10.83 l 0.912,7.524 h 0.456 q 3.762,-3.648 8.208,-6.27 4.446,-2.622 10.146,-2.622 9.006,0 13.11,5.814 4.104,5.814 4.104,16.416 v 35.112 h -13.11 v -33.402 q 0,-6.954 -2.052,-9.804 -2.052,-2.85 -6.726,-2.85 -3.648,0 -6.498,1.824 -2.736,1.71 -6.27,5.13 v 39.102 z m 76.60797,1.14 q -4.674,0 -7.524,-1.824 -2.736,-1.938 -3.99,-5.472 -1.254,-3.534 -1.254,-8.436 V 87.146981 h 13.11 v 66.575999 q 0,2.508 0.912,3.42 0.912,0.912 2.052,0.912 0.456,0 0.798,0 0.456,-0.114 1.14,-0.228 l 1.71,9.804 q -1.14,0.456 -2.964,0.798 -1.71,0.342 -3.99,0.342 z"
       id="path2" />
  </g>
</svg>
